# xmcd CD database file
#
# Track frame offsets:
#	150
#	14558
#	25000
#	35442
#	49636
#	62692
#	74311
#	86610
#	101142
#	115626
#	128021
#	141978
#	156228
#	169638
#	183852
#	197547
#	210389
#	226073
#	240744
#	252528
#	266901
#	276509
#	290374
#	305155
#	322223
#
# Disc length: 4516 seconds
#
# Revision: 3
# Processed by: cddbd v1.5.2PL0 Copyright (c) Steve Scherf et al.
# Submitted via: CDex 1.51
#
DISCID=6f11a219
DTITLE=Various Artist - ZM-VS-21
DYEAR=1900
DGENRE=Blues
TTITLE0=Dana - All Kinds Of Everything
TTITLE1=Allisons The - Are You Sure (for duo)
TTITLE2=Allisons The - Are You Sure (for solo singer)
TTITLE3=New Seekers The - Beg,Steal Or Borrow
TTITLE4=Sonia - Better The Devil You Know
TTITLE5=Lulu - Boom Bang-A-Bang
TTITLE6=Cliff Richard - Congratulations
TTITLE7=Johnny Logan - Hold Me Now
TTITLE8=Clodagh Rodgers - Jack In The Box
TTITLE9=Mary Hopkin - Knock Knock Who's There
TTITLE10=Bobbysocks - Let It Swing
TTITLE11=Shadows The - Let Me Be The One
TTITLE12=Olivia Newton John - Long Live Love
TTITLE13=Katrina And The Waves - Love Shine A Light
TTITLE14=Engelbert Humperdinck - Love Will Set You Free
TTITLE15=Bucks Fizz - Making Your Mind Up
TTITLE16=Gina G - Ooh Aah Just A Little Bit
TTITLE17=Cliff Richard - Power To All Your Friends
TTITLE18=Sandie Shaw - Puppet On A String
TTITLE19=Brotherhood Of Man - Save All Your kisses For Me
TTITLE20=Pearl Carr and Teddy Johnson - Sing A Little Birdie
TTITLE21=Abba - Waterloo
TTITLE22=Johnny Logan - What's Another Year
TTITLE23=Abba - Dancing Queen
TTITLE24=Abba - Mamma Mia
EXTD=
EXTT0=
EXTT1=
EXTT2=
EXTT3=
EXTT4=
EXTT5=
EXTT6=
EXTT7=
EXTT8=
EXTT9=
EXTT10=
EXTT11=
EXTT12=
EXTT13=
EXTT14=
EXTT15=
EXTT16=
EXTT17=
EXTT18=
EXTT19=
EXTT20=
EXTT21=
EXTT22=
EXTT23=
EXTT24=
PLAYORDER=
